Gait_normal_05_analogdata.mot
version=1
nRows=21
nColumns=19
inDegrees=yes
endheader
time	1_ground_force_vx	1_ground_force_vy	1_ground_force_vz	1_ground_force_px	1_ground_force_py	1_ground_force_pz	1_ground_torque_x	1_ground_torque_y	1_ground_torque_z	2_ground_force_vx	2_ground_force_vy	2_ground_force_vz	2_ground_force_px	2_ground_force_py	2_ground_force_pz	2_ground_torque_x	2_ground_torque_y	2_ground_torque_z
0.450000	-28.300243	518.068054	-17.991374	-0.135743	0.000000	-0.414859	-0.027100	0.496094	-0.017228	0.000000	0.000000	-0.000000	-0.200000	0.000000	0.302000	0.000000	0.000000	-0.000000
0.451000	-26.607612	517.718079	-16.841273	-0.134961	0.000000	-0.414279	-0.053802	1.046850	-0.034054	0.000000	0.000000	-0.000000	-0.200000	0.000000	0.302000	0.000000	0.000000	-0.000000
0.452000	-26.340354	514.918701	-16.398926	-0.135965	0.000000	-0.415512	-0.047167	0.922060	-0.029365	0.000000	0.000000	-0.000000	-0.200000	0.000000	0.302000	0.000000	0.000000	-0.000000
0.453000	-26.162183	514.568787	-16.221989	-0.134514	0.000000	-0.413607	-0.036544	0.718758	-0.022659	0.000000	0.000000	-0.000000	-0.200000	0.000000	0.302000	0.000000	0.000000	-0.000000
0.454000	-25.805841	516.318420	-15.602703	-0.134843	0.000000	-0.413815	-0.067036	1.341246	-0.040531	0.000000	0.000000	-0.000000	-0.200000	0.000000	0.302000	0.000000	0.000000	-0.000000
0.455000	-25.538583	512.819214	-16.841272	-0.136118	0.000000	-0.414388	-0.054399	1.092337	-0.035873	0.000000	0.000000	-0.000000	-0.200000	0.000000	0.302000	0.000000	0.000000	-0.000000
0.456000	-26.607612	512.819214	-15.248826	-0.134926	0.000000	-0.412400	-0.044812	0.863676	-0.025682	0.000000	0.000000	-0.000000	-0.200000	0.000000	0.302000	0.000000	0.000000	-0.000000
0.457000	-25.449497	517.368164	-15.160358	-0.135702	0.000000	-0.410980	-0.050609	1.028838	-0.030148	0.000000	0.000000	-0.000000	-0.200000	0.000000	0.302000	0.000000	0.000000	-0.000000
0.458000	-25.538583	515.618591	-15.071888	-0.134851	0.000000	-0.411258	-0.046062	0.929991	-0.027184	0.000000	0.000000	-0.000000	-0.200000	0.000000	0.302000	0.000000	0.000000	-0.000000
0.459000	-25.716755	519.467712	-14.452603	-0.134922	0.000000	-0.409449	-0.039239	0.792602	-0.022052	0.000000	0.000000	-0.000000	-0.200000	0.000000	0.302000	0.000000	0.000000	-0.000000
0.460000	-25.716755	517.018250	-15.071888	-0.133903	0.000000	-0.410326	-0.041108	0.826453	-0.024092	0.000000	0.000000	-0.000000	-0.200000	0.000000	0.302000	0.000000	0.000000	-0.000000
0.461000	-25.627670	516.668335	-14.718011	-0.132171	0.000000	-0.411094	-0.032063	0.646407	-0.018414	0.000000	0.000000	-0.000000	-0.200000	0.000000	0.302000	0.000000	0.000000	-0.000000
0.462000	-25.984012	510.019806	-14.010258	-0.132700	0.000000	-0.194183	-0.324694	6.373168	-0.175071	0.000000	0.000000	-0.000000	-0.200000	0.000000	0.302000	0.000000	0.000000	-0.000000
0.463000	-25.805841	507.220428	-12.594750	-0.132907	0.000000	-0.403802	-0.056855	1.117494	-0.027748	0.000000	0.000000	-0.000000	-0.200000	0.000000	0.302000	0.000000	0.000000	-0.000000
0.464000	-24.380468	513.519043	-12.860157	-0.133383	0.000000	-0.409297	-0.044297	0.933017	-0.023366	0.000000	0.000000	-0.000000	-0.200000	0.000000	0.302000	0.000000	0.000000	-0.000000
0.465000	-25.984013	514.568787	-12.948627	-0.132754	0.000000	-0.408331	-0.029390	0.582026	-0.014646	0.000000	0.000000	-0.000000	-0.200000	0.000000	0.302000	0.000000	0.000000	-0.000000
0.466000	-25.894926	516.318420	-13.744849	-0.133611	0.000000	-0.408599	-0.035664	0.711094	-0.018930	0.000000	0.000000	-0.000000	-0.200000	0.000000	0.302000	0.000000	0.000000	-0.000000
0.467000	-25.805841	511.769409	-13.744849	-0.132890	0.000000	-0.408465	-0.023775	0.471503	-0.012663	0.000000	0.000000	-0.000000	-0.200000	0.000000	0.302000	0.000000	0.000000	-0.000000
0.468000	-25.538584	514.218872	-12.063934	-0.133076	0.000000	-0.407668	-0.017666	0.355700	-0.008345	0.000000	0.000000	-0.000000	-0.200000	0.000000	0.302000	0.000000	0.000000	-0.000000
0.469000	-25.360413	510.719666	-13.125565	-0.132951	0.000000	-0.407282	-0.040534	0.816288	-0.020979	0.000000	0.000000	-0.000000	-0.200000	0.000000	0.302000	0.000000	0.000000	-0.000000
0.470000	-26.518528	511.769409	-11.710057	-0.133100	0.000000	-0.404896	-0.033501	0.646515	-0.014793	0.000000	0.000000	-0.000000	-0.200000	0.000000	0.302000	0.000000	0.000000	-0.000000
